<svg xmlns="http://www.w3.org/2000/svg" viewBox="0 0 24 24" fill="none"><symbol id="icon" viewBox="0 0 24 24" fill="none" stroke="currentColor" stroke-width="1.9" stroke-linecap="round" stroke-linejoin="round"><path d="M7.2 7.2c0 2.8-3.2 5-3.2 5S.8 10 0.8 7.2a3.2 3.2 0 0 1 6.4 0z" transform="translate(1 0)"/><circle cx="5" cy="7.2" r="1"/><path d="M8 17c2.2-2.8 4.7-3.8 7.3-3.1 1.6.4 2.8.1 3.7-.8" stroke-dasharray="2 2"/><path d="M22 7.2c0 2.8-3.2 5-3.2 5s-3.2-2.2-3.2-5a3.2 3.2 0 0 1 6.4 0z"/><circle cx="18.8" cy="7.2" r="1"/></symbol><use href="#icon"/></svg>
